<svg width="32" height="32" viewBox="0 0 32 32" fill="none" xmlns="http://www.w3.org/2000/svg">
<g clip-path="url(#clip0_376_359)">
<path fill-rule="evenodd" clip-rule="evenodd" d="M16 0C7.1632 0 0 7.1744 0 16.0272C0 23.1072 4.584 29.1152 10.9424 31.2336C11.7424 31.3808 12.0336 30.8864 12.0336 30.4608C12.0336 30.0816 12.0208 29.072 12.0128 27.736C7.5616 28.704 6.6224 25.5872 6.6224 25.5872C5.896 23.7344 4.8464 23.2416 4.8464 23.2416C3.3936 22.2496 4.9568 22.2688 4.9568 22.2688C6.5616 22.3808 7.4064 23.92 7.4064 23.92C8.8336 26.368 11.152 25.6608 12.0624 25.2512C12.2096 24.216 12.6224 23.5104 13.08 23.1104C9.528 22.7056 5.792 21.3296 5.792 15.1888C5.792 13.44 6.416 12.008 7.4384 10.888C7.2736 10.4832 6.7248 8.8528 7.5952 6.648C7.5952 6.648 8.9392 6.216 11.9952 8.2896C13.3004 7.93362 14.6471 7.75231 16 7.7504C17.36 7.7568 18.728 7.9344 20.0064 8.2896C23.0608 6.216 24.4016 6.6464 24.4016 6.6464C25.2752 8.8528 24.7248 10.4832 24.5616 10.888C25.5856 12.008 26.2064 13.44 26.2064 15.1888C26.2064 21.3456 22.464 22.7008 18.9008 23.0976C19.4752 23.592 19.9856 24.5696 19.9856 26.0656C19.9856 28.2064 19.9664 29.936 19.9664 30.4608C19.9664 30.8896 20.2544 31.3888 21.0672 31.232C24.2533 30.1634 27.0229 28.1205 28.9848 25.3921C30.9466 22.6637 32.0014 19.3877 32 16.0272C32 7.1744 24.8352 0 16 0Z" fill="#141414"/>
</g>
<defs>
<clipPath id="clip0_376_359">
<rect width="32" height="32" fill="white"/>
</clipPath>
</defs>
</svg>
