<svg id="SvgjsSvg1012" width="288" height="288" xmlns="http://www.w3.org/2000/svg" version="1.1" xmlns:xlink="http://www.w3.org/1999/xlink" xmlns:svgjs="http://svgjs.com/svgjs"><defs id="SvgjsDefs1013"></defs><g id="SvgjsG1014"><svg xmlns="http://www.w3.org/2000/svg" enable-background="new 0 0 500 500" viewBox="0 0 500 500" width="288" height="288"><path fill="none" stroke="#ffffff" stroke-linecap="round" stroke-linejoin="round" stroke-miterlimit="10" stroke-width="20" d="M375,425H125c-27.61,0-50-22.39-50-50V125c0-27.61,22.39-50,50-50h250c27.61,0,50,22.39,50,50v250
		C425,402.61,402.61,425,375,425z" class="colorStroke000 svgStroke"></path><path d="M330 336.67H170c-11.05 0-20-8.95-20-20s8.95-20 20-20h160c11.05 0 20 8.95 20 20S341.05 336.67 330 336.67zM330 270H170c-11.05 0-20-8.95-20-20s8.95-20 20-20h160c11.05 0 20 8.95 20 20S341.05 270 330 270zM330 203.33H170c-11.05 0-20-8.95-20-20s8.95-20 20-20h160c11.05 0 20 8.95 20 20S341.05 203.33 330 203.33z" fill="#ffffff" class="color000 svgShape"></path></svg></g></svg>