<!-- <svg width="32" height="32" viewBox="0 0 32 32" fill="none" xmlns="http://www.w3.org/2000/svg">
<g clip-path="url(#clip0_376_354)">
<path d="M29.6313 0H2.3625C1.05625 0 0 1.03125 0 2.30625V29.6875C0 30.9625 1.05625 32 2.3625 32H29.6313C30.9375 32 32 30.9625 32 29.6938V2.30625C32 1.03125 30.9375 0 29.6313 0ZM9.49375 27.2687H4.74375V11.9937H9.49375V27.2687ZM7.11875 9.9125C5.59375 9.9125 4.3625 8.68125 4.3625 7.1625C4.3625 5.64375 5.59375 4.4125 7.11875 4.4125C8.6375 4.4125 9.86875 5.64375 9.86875 7.1625C9.86875 8.675 8.6375 9.9125 7.11875 9.9125ZM27.2687 27.2687H22.525V19.8438C22.525 18.075 22.4937 15.7937 20.0562 15.7937C17.5875 15.7937 17.2125 17.725 17.2125 19.7188V27.2687H12.475V11.9937H17.025V14.0813H17.0875C17.7187 12.8813 19.2688 11.6125 21.575 11.6125C26.3813 11.6125 27.2687 14.775 27.2687 18.8875V27.2687V27.2687Z" fill="#141414"/>
</g>
<defs>
<clipPath id="clip0_376_354">
<rect width="32" height="32" fill="white"/>
</clipPath>
</defs>
</svg> -->
<svg xmlns="http://www.w3.org/2000/svg" x="0px" y="0px" width="32" height="32" viewBox="0 0 50 50">
    <path d="M 16 3 C 8.83 3 3 8.83 3 16 L 3 34 C 3 41.17 8.83 47 16 47 L 34 47 C 41.17 47 47 41.17 47 34 L 47 16 C 47 8.83 41.17 3 34 3 L 16 3 z M 37 11 C 38.1 11 39 11.9 39 13 C 39 14.1 38.1 15 37 15 C 35.9 15 35 14.1 35 13 C 35 11.9 35.9 11 37 11 z M 25 14 C 31.07 14 36 18.93 36 25 C 36 31.07 31.07 36 25 36 C 18.93 36 14 31.07 14 25 C 14 18.93 18.93 14 25 14 z M 25 16 C 20.04 16 16 20.04 16 25 C 16 29.96 20.04 34 25 34 C 29.96 34 34 29.96 34 25 C 34 20.04 29.96 16 25 16 z"></path>
</svg>